<?xml version="1.0" standalone="no"?>
<!DOCTYPE svg PUBLIC "-//W3C//DTD SVG 20010904//EN"
 "http://www.w3.org/TR/2001/REC-SVG-20010904/DTD/svg10.dtd">
<svg version="1.0" xmlns="http://www.w3.org/2000/svg"
 width="300.000000pt" height="300.000000pt" viewBox="0 0 300.000000 300.000000"
 preserveAspectRatio="xMidYMid meet">
<metadata>
Created by potrace 1.14, written by Peter Selinger 2001-2017
</metadata>
<g transform="translate(0.000000,300.000000) scale(0.100000,-0.100000)"
fill="#000000" stroke="none">
<path d="M1230 2585 c-102 -13 -358 -44 -569 -69 -212 -26 -386 -48 -387 -49
-2 -2 59 -43 136 -91 134 -86 138 -90 134 -120 -2 -17 -18 -188 -34 -381 -17
-192 -47 -537 -67 -766 l-37 -416 -128 -94 c-113 -82 -126 -95 -106 -101 13
-4 106 -16 208 -28 102 -11 419 -48 704 -81 286 -32 521 -58 523 -56 2 2 -50
61 -116 131 -66 70 -122 134 -125 144 -13 46 -158 764 -155 767 2 2 20 6 40
10 l36 7 336 -348 c186 -191 337 -350 337 -353 0 -3 -50 -37 -110 -76 -84 -53
-106 -72 -93 -77 10 -4 128 -20 263 -37 135 -17 386 -49 559 -71 173 -22 315
-39 316 -38 2 2 -81 125 -182 273 -173 252 -801 1177 -816 1202 -5 8 133 125
368 314 206 166 374 303 373 305 -2 1 -199 9 -438 18 -239 9 -474 18 -522 20
-49 3 -88 2 -88 -1 0 -3 30 -41 66 -84 36 -44 64 -85 61 -92 -5 -13 -443 -535
-486 -580 l-27 -28 -48 311 c-27 171 -47 312 -45 313 2 2 72 55 154 117 170
129 173 130 160 129 -6 -1 -93 -12 -195 -24z"/>
<path d="M1256 202 c-2 -1 -285 -2 -630 -2 l-626 0 0 -100 0 -100 1500 0 1500
0 0 100 0 100 -522 0 c-288 0 -680 1 -871 3 -192 1 -350 1 -351 -1z"/>
</g>
</svg>
